<svg width="438" height="231" viewBox="0 0 438 231" fill="none" xmlns="http://www.w3.org/2000/svg">
<rect width="438" height="231" fill="black"/>
<ellipse cx="2.15499" cy="0.870859" rx="2.15499" ry="0.870859" transform="matrix(0.917066 0.398885 -0.528935 0.848576 173.262 55.6547)" fill="#FFBF00" stroke="#FFBF00"/>
<ellipse cx="0.705327" cy="1.72123" rx="0.705327" ry="1.72123" transform="matrix(0.798228 0.602486 -0.733815 0.67923 198.234 44.8804)" fill="#FFBF00" stroke="#FFBF00"/>
<ellipse cx="1.58876" cy="0.791805" rx="1.58876" ry="0.791805" transform="matrix(0.950436 -0.310766 0.423098 0.906153 200.442 58.4333)" fill="#FFBF00" stroke="#FFBF00"/>
<path d="M167.933 70.4838L167.919 66.4766C167.919 66.4766 163.86 64.2243 171.157 65.0726C178.453 65.9209 169.724 60.7214 167.296 61.6001C164.867 62.4789 165.867 58.4685 170.327 59.1515C174.786 59.8344 173.984 62.3189 175.806 61.7906C177.628 61.2622 181.873 58.3985 180.68 57.5103C179.487 56.6222 182.893 52.2221 181.463 49.367C180.033 46.512 187.323 44.3868 184.699 47.3569C182.074 50.327 185.012 55.5628 184.93 56.1965C184.849 56.8302 181.306 61.7239 179.468 62.6527C177.362 63.7179 174.487 66.1951 173.764 66.8307C175.227 66.4209 178.296 64.8246 178.838 64.0486C179.242 63.4712 183.056 62.0735 181.039 64.8674C179.463 67.0512 180.076 66.4385 179.875 66.9618C178.043 71.7353 180.474 64.1723 185.537 63.6338C187.5 63.425 187.287 62.9314 188.775 62.404C189.726 62.0669 190.792 59.61 192.004 58.5609C194.936 56.0234 198.076 56.6254 196.056 58.5482C195.021 59.5333 194.41 59.9689 193.227 60.6478C192.616 60.9982 191.607 61.1756 191.206 62.3964C190.311 65.1204 209.429 58.6806 210.05 62.8601C210.298 64.5268 215.57 65.2687 213.911 66.1584C213.038 66.6267 203.737 64.4089 203.169 65.1466C202.362 66.1945 198.843 64.8188 197.9 64.6404C197.359 64.5381 196.192 65.8682 195.676 66.0412C194.996 66.2692 195.05 65.8949 194.461 66.2646C192.642 67.4053 191.035 65.4158 188.785 65.4112C186.456 65.4066 184.954 66.3326 182.915 67.3008C181.151 68.1382 180.241 68.9261 179.279 70.4483L167.933 70.4838Z" fill="#FFBF00"/>
<path d="M167.933 70.4838L167.919 66.4766C167.919 66.4766 163.86 64.2243 171.157 65.0726C178.453 65.9209 169.724 60.7214 167.296 61.6001C164.867 62.4789 165.867 58.4685 170.327 59.1515C174.786 59.8344 173.984 62.3189 175.806 61.7906C177.628 61.2622 181.873 58.3985 180.68 57.5103C179.487 56.6222 182.893 52.2221 181.463 49.367C180.033 46.512 187.323 44.3868 184.699 47.3569C182.074 50.327 185.012 55.5628 184.93 56.1965C184.849 56.8302 181.306 61.7239 179.468 62.6527C177.041 63.8799 173.594 66.9815 173.594 66.9815C173.594 66.9815 175.262 64.6114 174.228 65.4568C169.985 68.9255 177.933 65.344 178.838 64.0486C179.242 63.4712 183.056 62.0735 181.039 64.8674C179.463 67.0512 180.076 66.4385 179.875 66.9618C178.043 71.7353 180.474 64.1723 185.537 63.6338C187.5 63.425 187.287 62.9314 188.775 62.404C189.726 62.0669 190.792 59.61 192.004 58.5609C194.936 56.0234 198.076 56.6254 196.056 58.5482C195.021 59.5333 194.41 59.9689 193.227 60.6478C192.616 60.9982 191.607 61.1756 191.206 62.3964C190.311 65.1204 209.429 58.6806 210.05 62.8601C210.298 64.5268 215.57 65.2687 213.911 66.1584C213.038 66.6267 203.737 64.4089 203.169 65.1466C202.362 66.1945 198.843 64.8188 197.9 64.6404C197.359 64.5381 196.192 65.8682 195.676 66.0412C194.996 66.2692 195.05 65.8949 194.461 66.2646C192.642 67.4053 191.035 65.4158 188.785 65.4112C186.456 65.4066 184.954 66.3326 182.915 67.3008C181.151 68.1382 180.241 68.9261 179.279 70.4483L167.933 70.4838Z" stroke="#FFBF00" stroke-width="0.5"/>
<path d="M184.041 69.1445C182.623 69.3715 181.612 69.849 180.399 70.5497C180.399 70.5497 182.821 67.9287 187.076 67.9154L187.111 67.9153C188.384 67.9112 192.59 67.8977 192.55 68.9436C192.536 69.3099 190.761 69.5151 190.527 69.8211C189.568 71.0713 185.458 68.9175 184.041 69.1445Z" fill="#FFBF00" stroke="#FFBF00"/>
<path d="M188.577 50.3484C187.643 49.3951 185.537 50.6168 185.602 49.3332C185.651 48.3557 186.519 47.9551 187.455 47.902C187.924 47.8754 188.303 48.4482 188.662 48.1651C189.051 47.8586 188.711 47.3266 188.594 46.7954C188.283 45.3828 185.815 44.2734 186.243 42.9733C186.617 41.8408 188.452 41.2832 189.456 42.0503C190.697 42.9983 190.872 44.3565 191.466 44.9445C193.48 46.9396 193.077 49.4474 193.077 49.4474C193.077 49.4474 193.936 49.3102 194.335 49.9124C196.042 52.4916 187.172 61.7824 185.253 62.2068C183.335 62.6311 183.183 61.8445 183.793 61.7207C185.598 61.3548 188.411 56.236 188.411 56.236C188.411 56.236 189.854 55.1248 189.059 51.1738C189.059 51.1738 189.212 50.9967 188.577 50.3484Z" fill="#FFBF00" stroke="#FFBF00"/>
<rect width="5.12557" height="23.0153" transform="matrix(0.987307 -0.158665 0.166729 0.986029 140.355 58.859)" fill="#249F26"/>
<path d="M132.618 75.4878L131.643 70.3397L183.38 70.301L182.881 75.6392L132.762 75.6767L132.754 75.6767C132.752 75.6721 132.751 75.6676 132.749 75.6633C132.739 75.6384 132.725 75.606 132.705 75.5756C132.695 75.5606 132.678 75.5367 132.652 75.5137C132.644 75.5064 132.633 75.4971 132.618 75.4878ZM134.314 84.6122C133.658 80.4038 133.152 77.3662 132.887 76.1766L182.83 76.1392L175.777 141.807L142.628 141.831C141.102 130.957 138.888 115.394 136.938 102.093C135.957 95.3982 135.042 89.2758 134.314 84.6122Z" fill="#E8B51E"/>
<path d="M132.618 75.4878L131.643 70.3397L183.38 70.301L182.881 75.6392L132.762 75.6767L132.754 75.6767C132.752 75.6721 132.751 75.6676 132.749 75.6633C132.739 75.6384 132.725 75.606 132.705 75.5756C132.695 75.5606 132.678 75.5367 132.652 75.5137C132.644 75.5064 132.633 75.4971 132.618 75.4878ZM134.314 84.6122C133.658 80.4038 133.152 77.3662 132.887 76.1766L182.83 76.1392L175.777 141.807L142.628 141.831C141.102 130.957 138.888 115.394 136.938 102.093C135.957 95.3982 135.042 89.2758 134.314 84.6122Z" fill="#DDB02B"/>
<path d="M132.618 75.4878L131.643 70.3397L183.38 70.301L182.881 75.6392L132.762 75.6767L132.754 75.6767C132.752 75.6721 132.751 75.6676 132.749 75.6633C132.739 75.6384 132.725 75.606 132.705 75.5756C132.695 75.5606 132.678 75.5367 132.652 75.5137C132.644 75.5064 132.633 75.4971 132.618 75.4878ZM134.314 84.6122C133.658 80.4038 133.152 77.3662 132.887 76.1766L182.83 76.1392L175.777 141.807L142.628 141.831C141.102 130.957 138.888 115.394 136.938 102.093C135.957 95.3982 135.042 89.2758 134.314 84.6122Z" stroke="#249F26" stroke-width="0.5"/>
<path d="M134.632 76.4742L143.47 75.2837L153.097 143.206L144.259 144.397L134.632 76.4742ZM148.48 107.142L165.808 72.2746L175.617 70.9532L158.095 105.847L185.244 138.876L175.435 140.197L148.48 107.142Z" fill="#1E1E1E"/>
<path d="M182.94 70.5517L182.487 75.3899L132.695 75.4271L131.778 70.59L182.94 70.5517Z" fill="#E8B51E"/>
<path d="M182.94 70.5517L182.487 75.3899L132.695 75.4271L131.778 70.59L182.94 70.5517Z" fill="#249F26"/>
<path d="M182.94 70.5517L182.487 75.3899L132.695 75.4271L131.778 70.59L182.94 70.5517Z" stroke="#249F26"/>
<path d="M182.866 74.5518L182.546 75.9471L132.603 75.9845L131.96 74.5899L182.866 74.5518Z" fill="#E8B51E"/>
<path d="M182.866 74.5518L182.546 75.9471L132.603 75.9845L131.96 74.5899L182.866 74.5518Z" fill="#1E1E1E"/>
<path d="M182.866 74.5518L182.546 75.9471L132.603 75.9845L131.96 74.5899L182.866 74.5518Z" stroke="#1E1E1E"/>
<path d="M146.698 95.8095L144.806 77.9912L148.455 77.9782L146.698 95.8095Z" fill="white"/>
<path d="M45.2422 182.833V155.633H46.4422L60.5222 175.633V155.633H63.3222V182.793H62.1222L48.0422 162.793V182.833H45.2422ZM78.8647 183.193C76.838 183.193 75.0647 182.833 73.5447 182.113C72.0247 181.367 70.838 180.3 69.9847 178.913C69.1314 177.5 68.7047 175.807 68.7047 173.833V155.633H71.5047V174.233C71.5047 175.62 71.8247 176.78 72.4647 177.713C73.1047 178.62 73.9847 179.3 75.1047 179.753C76.2247 180.18 77.478 180.393 78.8647 180.393C80.3314 180.393 81.6114 180.167 82.7047 179.713C83.798 179.233 84.6514 178.54 85.2647 177.633C85.878 176.7 86.1847 175.567 86.1847 174.233V155.633H88.9847V173.833C88.9847 175.807 88.558 177.5 87.7047 178.913C86.8514 180.3 85.6647 181.367 84.1447 182.113C82.6514 182.833 80.8914 183.193 78.8647 183.193ZM100.383 182.753V158.193H92.1828V155.553H111.383V158.193H103.183V182.753H100.383ZM115.164 182.833V155.633H123.884C125.511 155.633 126.977 155.993 128.284 156.713C129.591 157.407 130.617 158.38 131.364 159.633C132.137 160.86 132.524 162.26 132.524 163.833C132.524 165.38 132.164 166.753 131.444 167.953C130.724 169.153 129.764 170.113 128.564 170.833C127.391 171.527 126.071 171.927 124.604 172.033L132.964 182.833H129.204L121.244 172.073H117.964V182.833H115.164ZM117.964 169.393H124.284C125.404 169.393 126.364 169.14 127.164 168.633C127.991 168.1 128.617 167.407 129.044 166.553C129.497 165.7 129.724 164.767 129.724 163.753C129.724 162.713 129.497 161.793 129.044 160.993C128.617 160.167 128.004 159.513 127.204 159.033C126.404 158.553 125.431 158.313 124.284 158.313H117.964V169.393ZM135.522 182.833V180.233H138.522V158.233H135.522V155.633H144.322V158.233H141.322V180.233H144.322V182.833H135.522ZM154.914 182.753V158.193H146.714V155.553H165.914V158.193H157.714V182.753H154.914ZM168.295 182.833V180.233H171.295V158.233H168.295V155.633H177.095V158.233H174.095V180.233H177.095V182.833H168.295ZM193.862 183.153C191.942 183.153 190.142 182.793 188.462 182.073C186.782 181.327 185.302 180.313 184.022 179.033C182.742 177.727 181.728 176.233 180.982 174.553C180.262 172.873 179.902 171.073 179.902 169.153C179.902 167.233 180.262 165.433 180.982 163.753C181.702 162.073 182.702 160.593 183.982 159.313C185.288 158.007 186.782 156.993 188.462 156.273C190.142 155.553 191.942 155.193 193.862 155.193C195.808 155.193 197.622 155.553 199.302 156.273C201.008 156.993 202.502 157.993 203.782 159.273C205.062 160.553 206.062 162.033 206.782 163.713C207.502 165.393 207.862 167.207 207.862 169.153C207.862 171.153 207.488 173.007 206.742 174.713C205.995 176.393 204.968 177.873 203.662 179.153C202.355 180.407 200.862 181.393 199.182 182.113C197.502 182.807 195.728 183.153 193.862 183.153ZM193.862 180.353C195.435 180.353 196.888 180.073 198.222 179.513C199.582 178.927 200.768 178.127 201.782 177.113C202.822 176.073 203.622 174.873 204.182 173.513C204.768 172.153 205.062 170.7 205.062 169.153C205.062 167.607 204.768 166.167 204.182 164.833C203.622 163.473 202.822 162.287 201.782 161.273C200.768 160.233 199.582 159.433 198.222 158.873C196.862 158.287 195.408 157.993 193.862 157.993C192.315 157.993 190.862 158.287 189.502 158.873C188.168 159.433 186.982 160.233 185.942 161.273C184.928 162.287 184.128 163.473 183.542 164.833C182.982 166.167 182.702 167.607 182.702 169.153C182.702 170.7 182.982 172.153 183.542 173.513C184.128 174.873 184.928 176.073 185.942 177.113C186.982 178.127 188.168 178.927 189.502 179.513C190.862 180.073 192.315 180.353 193.862 180.353ZM212.664 182.833V155.633H213.864L227.944 175.633V155.633H230.744V182.793H229.544L215.464 162.793V182.833H212.664ZM247.508 182.833V155.633H250.308V180.033H261.628V182.833H247.508ZM277.026 183.153C275.106 183.153 273.306 182.793 271.626 182.073C269.946 181.327 268.466 180.313 267.186 179.033C265.906 177.727 264.892 176.233 264.146 174.553C263.426 172.873 263.066 171.073 263.066 169.153C263.066 167.233 263.426 165.433 264.146 163.753C264.866 162.073 265.866 160.593 267.146 159.313C268.452 158.007 269.946 156.993 271.626 156.273C273.306 155.553 275.106 155.193 277.026 155.193C278.972 155.193 280.786 155.553 282.466 156.273C284.172 156.993 285.666 157.993 286.946 159.273C288.226 160.553 289.226 162.033 289.946 163.713C290.666 165.393 291.026 167.207 291.026 169.153C291.026 171.153 290.652 173.007 289.906 174.713C289.159 176.393 288.132 177.873 286.826 179.153C285.519 180.407 284.026 181.393 282.346 182.113C280.666 182.807 278.892 183.153 277.026 183.153ZM277.026 180.353C278.599 180.353 280.052 180.073 281.386 179.513C282.746 178.927 283.932 178.127 284.946 177.113C285.986 176.073 286.786 174.873 287.346 173.513C287.932 172.153 288.226 170.7 288.226 169.153C288.226 167.607 287.932 166.167 287.346 164.833C286.786 163.473 285.986 162.287 284.946 161.273C283.932 160.233 282.746 159.433 281.386 158.873C280.026 158.287 278.572 157.993 277.026 157.993C275.479 157.993 274.026 158.287 272.666 158.873C271.332 159.433 270.146 160.233 269.106 161.273C268.092 162.287 267.292 163.473 266.706 164.833C266.146 166.167 265.866 167.607 265.866 169.153C265.866 170.7 266.146 172.153 266.706 173.513C267.292 174.873 268.092 176.073 269.106 177.113C270.146 178.127 271.332 178.927 272.666 179.513C274.026 180.073 275.479 180.353 277.026 180.353ZM305.388 183.193C303.361 183.193 301.588 182.833 300.068 182.113C298.548 181.367 297.361 180.3 296.508 178.913C295.655 177.5 295.228 175.807 295.228 173.833V155.633H298.028V174.233C298.028 175.62 298.348 176.78 298.988 177.713C299.628 178.62 300.508 179.3 301.628 179.753C302.748 180.18 304.001 180.393 305.388 180.393C306.855 180.393 308.135 180.167 309.228 179.713C310.321 179.233 311.175 178.54 311.788 177.633C312.401 176.7 312.708 175.567 312.708 174.233V155.633H315.508V173.833C315.508 175.807 315.081 177.5 314.228 178.913C313.375 180.3 312.188 181.367 310.668 182.113C309.175 182.833 307.415 183.193 305.388 183.193ZM320.906 182.833V155.633H322.106L336.186 175.633V155.633H338.986V182.793H337.786L323.706 162.793V182.833H320.906ZM357.769 183.153C355.849 183.153 354.049 182.793 352.369 182.073C350.689 181.353 349.195 180.353 347.889 179.073C346.609 177.793 345.595 176.3 344.849 174.593C344.129 172.887 343.769 171.06 343.769 169.113C343.769 167.273 344.115 165.513 344.809 163.833C345.529 162.153 346.502 160.66 347.729 159.353C348.982 158.047 350.435 157.02 352.089 156.273C353.769 155.5 355.569 155.113 357.489 155.113C359.702 155.113 361.729 155.54 363.569 156.393C365.409 157.22 366.995 158.393 368.329 159.913C369.662 161.407 370.622 163.153 371.209 165.153H368.249C367.395 162.94 366.022 161.18 364.129 159.873C362.262 158.567 360.142 157.913 357.769 157.913C356.222 157.913 354.769 158.207 353.409 158.793C352.049 159.353 350.849 160.153 349.809 161.193C348.795 162.207 347.995 163.393 347.409 164.753C346.849 166.087 346.569 167.54 346.569 169.113C346.569 170.66 346.849 172.113 347.409 173.473C347.995 174.807 348.795 175.993 349.809 177.033C350.822 178.073 352.009 178.887 353.369 179.473C354.729 180.06 356.195 180.353 357.769 180.353C359.422 180.353 360.982 180.033 362.449 179.393C363.915 178.753 365.182 177.847 366.249 176.673C367.342 175.5 368.155 174.127 368.689 172.553H357.649V170.113H371.809L371.529 171.793C371.235 173.5 370.662 175.047 369.809 176.433C368.955 177.82 367.889 179.02 366.609 180.033C365.355 181.02 363.969 181.793 362.449 182.353C360.955 182.887 359.395 183.153 357.769 183.153ZM376.609 182.833V155.633H392.769V158.233H379.409V167.913H392.369V170.553H379.409V180.233H392.769V182.833H376.609Z" fill="#FFBF00"/>
<path d="M118.553 138.177C115.417 138.177 112.121 137.793 108.665 137.025C105.273 136.321 102.489 135.457 100.313 134.433L101.561 124.833C104.121 126.433 106.969 127.745 110.105 128.769C113.241 129.729 116.345 130.209 119.417 130.209C123.385 130.209 126.489 129.409 128.729 127.809C130.969 126.145 132.089 123.745 132.089 120.609C132.089 118.369 131.545 116.449 130.457 114.849C129.433 113.249 127.929 111.841 125.945 110.625C123.961 109.345 121.177 107.905 117.593 106.305C113.369 104.385 110.009 102.625 107.513 101.025C105.081 99.4255 103.129 97.4415 101.657 95.0735C100.185 92.7055 99.4492 89.7615 99.4492 86.2415C99.4492 82.6575 100.377 79.5215 102.233 76.8335C104.089 74.0815 106.681 71.9695 110.009 70.4975C113.401 69.0255 117.241 68.2895 121.529 68.2895C124.793 68.2895 127.865 68.6415 130.745 69.3455C133.689 70.0495 136.185 70.9135 138.233 71.9375L137.273 80.9615C131.961 77.8255 126.553 76.2575 121.049 76.2575C117.337 76.2575 114.425 77.0255 112.313 78.5615C110.201 80.0975 109.145 82.4655 109.145 85.6655C109.145 87.8415 109.689 89.6655 110.777 91.1375C111.929 92.5455 113.497 93.8255 115.481 94.9775C117.465 96.0655 120.473 97.5375 124.505 99.3935C130.521 102.081 134.905 104.993 137.657 108.129C140.409 111.201 141.785 115.073 141.785 119.745C141.785 125.441 139.705 129.953 135.545 133.281C131.385 136.545 125.721 138.177 118.553 138.177ZM229.884 69.6335L210.108 107.745V136.833H201.372V107.745L181.404 69.6335H191.1L205.692 98.5295L220.188 69.6335H229.884ZM237.43 69.6335H246.166V97.3775H277.078V69.6335H285.814V136.833H277.078V105.921H246.166V136.833H237.43V69.6335ZM340.509 69.6335L320.733 107.745V136.833H311.997V107.745L292.029 69.6335H301.725L316.317 98.5295L330.813 69.6335H340.509Z" fill="#249F26"/>
</svg>
